# xmcd
#
# Track frame offsets:
#	150
#	15284
#	33625
#	47969
#	65568
#	85190
#	98467
#	115495
#	129946
#	145323
#	166717
#	182964
#	199595
#	213268
#
# Disc length: 3115 seconds
#
# Revision: 0
# Processed by: cddbd v1.5.2PL0 Copyright (c) Steve Scherf et al.
# Submitted via: dBpowerAMP V4.0
#
DISCID=ba0c290e
DTITLE=Tim O'Brien - Chicken and Egg
DYEAR=2010
DGENRE=Country
TTITLE0=You Ate The Apple
TTITLE1=My Girl's Waiting For Me
TTITLE2=Suzannah
TTITLE3=Sinner
TTITLE4=Gonna Try To Make Her Stay
TTITLE5=The Sun Jumped Up
TTITLE6=All I Want
TTITLE7=Workin
TTITLE8=No Way To Stop The Flow
TTITLE9=Not Afraid O' Dyin'
TTITLE10=Letter In The Mail
TTITLE11=Old Joe
TTITLE12=Mother Mary
TTITLE13=Space Between The Lines
EXTD=
EXTT0=
EXTT1=
EXTT2=
EXTT3=
EXTT4=
EXTT5=
EXTT6=
EXTT7=
EXTT8=
EXTT9=
EXTT10=
EXTT11=
EXTT12=
EXTT13=
PLAYORDER=
